<svg width="51" height="50" viewBox="0 0 51 50" fill="none" xmlns="http://www.w3.org/2000/svg">
<g id="asana">
<path id="bg" d="M25.5 3.125C13.4346 3.125 3.625 12.9346 3.625 25C3.625 37.0654 13.4346 46.875 25.5 46.875C37.5654 46.875 47.375 37.0654 47.375 25C47.375 12.9346 37.5654 3.125 25.5 3.125Z" fill="url(#paint0_radial_101_125)"/>
<path id="asana_2" d="M32.5631 24.908C29.56 24.908 27.1259 27.3769 27.1259 30.4226C27.1259 33.4684 29.56 35.9375 32.5631 35.9375C35.5658 35.9375 38 33.4684 38 30.4226C38 27.3769 35.5658 24.908 32.5631 24.908ZM18.437 24.9084C15.4343 24.9084 13 27.3769 13 30.4228C13 33.4684 15.4343 35.9375 18.437 35.9375C21.4399 35.9375 23.8744 33.4684 23.8744 30.4228C23.8744 27.3769 21.4399 24.9084 18.437 24.9084ZM30.9369 18.0146C30.9369 21.0602 28.5028 23.5297 25.5001 23.5297C22.4972 23.5297 20.063 21.0602 20.063 18.0146C20.063 14.9691 22.4972 12.5 25.5001 12.5C28.5028 12.5 30.9369 14.9691 30.9369 18.0146Z" fill="white"/>
</g>
<defs>
<radialGradient id="paint0_radial_101_125" cx="0" cy="0" r="1" gradientUnits="userSpaceOnUse" gradientTransform="translate(25.5 27.0353) scale(28.9902)">
<stop stop-color="#FFB900"/>
<stop offset="0.6" stop-color="#F95D8F"/>
<stop offset="0.9991" stop-color="#F95353"/>
</radialGradient>
</defs>
</svg>
